<?xml version="1.0" encoding="UTF-8"?>
<!DOCTYPE svg  PUBLIC '-//W3C//DTD SVG 1.1//EN'  'http://www.w3.org/Graphics/SVG/1.1/DTD/svg11.dtd'>
<svg clip-rule="evenodd" fill-rule="evenodd" stroke-linejoin="round" stroke-miterlimit="2" version="1.1" viewBox="0 0 1824 1012" xml:space="preserve" xmlns="http://www.w3.org/2000/svg"><path d="m672.86 154.48s-262.68-43.603-379.66 157.39c-116.98 201-6.126 396.51 65.127 432.66s280.42 61.257 374-73.805 32.542-297.65-19.568-329.55c-52.11-31.905-181.34-75.039-279.18 5.785s-90.412 195.59-5.785 252.9c78.488 53.152 166.37 20.419 208.91-56.152 42.539-76.57-93.586-163.78-129.74-86.141-36.158 77.633 14.889 40.412 48.92 41.475 34.031 1.064 21.269 72.317-40.412 68.063-61.682-4.254-97.043-30.173-64.872-124.43 36.371-106.56 188.24-94.65 244.6 23.396 56.365 118.05-79.973 219.8-162.92 230.44-82.952 10.634-254.98-86.397-242.22-223.59 12.762-137.19 115.88-346.1 427.48-248.26 311.6 97.84 223.72 703.29-222.27 678.5-432.37-24.034-451.85-560.71-277.57-683.82 191.74-135.44 340.31-76.571 455.17-64.872z" fill="#44ffd2"/><rect width="1823.5" height="1012" fill="none"/><g transform="matrix(1 0 0 .83926 -1.819e-12 -2048.4)"><text x="988.498px" y="3232.79px" fill="#44ffd2" font-family="'LucidaSans', 'Lucida Sans', sans-serif" font-size="519.87px">LBI</text></g></svg>
